<svg width="76" height="76" viewBox="0 0 76 76" fill="none" xmlns="http://www.w3.org/2000/svg">
<g clip-path="url(#clip0_5_63)">
<mask id="mask0_5_63" style="mask-type:luminance" maskUnits="userSpaceOnUse" x="1" y="0" width="76" height="76">
<path d="M1 -2.25278e-06H76.5907V75.5907H1V-2.25278e-06Z" fill="white"/>
</mask>
<g mask="url(#mask0_5_63)">
<path d="M67.181 28.5516C65.8104 27.3076 65.233 24.1196 64.889 22.2143C64.7317 21.3423 64.6064 20.6529 64.4264 20.1409C63.3624 17.1383 60.8944 14.7649 57.8224 13.7889C56.653 13.4169 55.4597 13.2289 54.2744 13.2289C50.6917 13.2289 47.3517 14.9676 45.3397 17.8809C44.9984 18.3743 44.445 18.6689 43.857 18.6689C43.7917 18.6689 43.7264 18.6649 43.661 18.6583C42.2704 18.5009 40.8624 18.4209 39.4717 18.4209C38.085 18.4209 36.6784 18.5009 35.2904 18.6569C35.225 18.6636 35.1584 18.6676 35.0944 18.6676C34.5024 18.6676 33.9437 18.3703 33.5997 17.8729C31.5877 14.9649 28.249 13.2289 24.6704 13.2289C24.433 13.2289 24.1957 13.2356 23.9557 13.2516C18.4771 13.5996 14.1504 17.9143 13.889 23.2916C13.7784 25.5649 13.0904 27.5009 11.9984 28.6023L11.5624 29.0409C8.96505 31.6383 5.40772 35.1956 5.45705 42.3116C5.52505 52.2663 16.0691 62.3263 39.469 62.3623H39.6037C51.097 62.3623 59.9784 60.1023 66.0024 55.6436C70.7597 52.1236 73.4864 47.2609 73.4864 42.2983C73.4864 34.2689 68.741 29.9663 67.181 28.5516Z" fill="#84B83A"/>
</g>
<mask id="mask1_5_63" style="mask-type:luminance" maskUnits="userSpaceOnUse" x="1" y="0" width="76" height="76">
<path d="M1 0H76.5907V75.5907H1V0Z" fill="white"/>
</mask>
<g mask="url(#mask1_5_63)">
<path d="M38.4666 31.5521C38.4666 32.3481 37.8079 32.9935 36.9946 32.9935C36.1826 32.9935 35.5239 32.3481 35.5239 31.5521C35.5239 30.7561 36.1826 30.1108 36.9946 30.1108C37.8079 30.1108 38.4666 30.7561 38.4666 31.5521Z" fill="#DADBDC"/>
<path d="M44.2969 31.5521C44.2969 32.3481 43.6396 32.9935 42.8249 32.9935C42.0129 32.9935 41.3542 32.3481 41.3542 31.5521C41.3542 30.7561 42.0129 30.1108 42.8249 30.1108C43.6396 30.1108 44.2969 30.7561 44.2969 31.5521Z" fill="#DADBDC"/>
<path d="M27.8451 21.6244C27.5344 20.9657 26.7344 20.6897 26.0638 20.9991C25.5118 21.2537 24.9278 21.4564 24.3451 21.6084C23.4558 21.8417 22.5411 21.9857 21.6198 22.0471C20.9304 22.0937 20.3638 22.6284 20.3611 23.3044V23.3177C20.3611 25.5031 22.1211 27.2751 24.2918 27.2751C26.4624 27.2751 28.2224 25.5031 28.2224 23.3177C28.2224 22.7111 28.0878 22.1377 27.8451 21.6244Z" fill="#DADBDC"/>
<path d="M51.185 21.6244C51.4956 20.9657 52.2956 20.6897 52.9663 20.9991C53.517 21.2537 54.1023 21.4564 54.685 21.6084C55.5743 21.8417 56.489 21.9857 57.4103 22.0471C58.0996 22.0937 58.6663 22.6284 58.6676 23.3044V23.3177C58.6676 25.5031 56.909 27.2751 54.737 27.2751C52.5663 27.2751 50.8076 25.5031 50.8076 23.3177C50.8076 22.7111 50.9423 22.1377 51.185 21.6244Z" fill="#DADBDC"/>
<path d="M55.591 37.8777C46.9556 43.9206 34.6036 44.2339 25.7491 38.5038C23.9182 37.3189 22.2499 40.1336 24.0605 41.3058C33.8216 47.6213 47.9152 47.2429 57.4265 40.5858C59.1981 39.3461 57.3835 36.6228 55.591 37.8777Z" fill="#DADBDC"/>
<path d="M54.2747 13.2287C50.6907 13.2287 47.352 14.9673 45.34 17.8807C44.9987 18.374 44.4454 18.6687 43.8574 18.6687C43.792 18.6687 43.7267 18.6647 43.6614 18.658C42.272 18.5007 40.8614 18.422 39.472 18.422C38.084 18.422 36.6774 18.5007 35.2907 18.6567C35.224 18.6647 35.1587 18.6673 35.0934 18.6673C34.5014 18.6673 33.9427 18.37 33.6 17.8727C31.588 14.9647 28.2494 13.2287 24.6694 13.2287C24.4334 13.2287 24.1947 13.2353 23.9547 13.2513C18.4774 13.5993 14.1494 17.9153 13.888 23.2913C13.7787 25.5647 13.0894 27.5007 11.9987 28.602L11.5614 29.0407C8.96538 31.6393 5.40805 35.1967 5.45605 42.3113C5.52538 52.266 16.068 62.326 39.4694 62.362H39.604C51.096 62.362 59.9774 60.102 66.0027 55.6433C70.7587 52.1233 73.4867 47.2607 73.4867 42.298C73.4867 34.2687 68.7414 29.966 67.1814 28.5513C65.8094 27.3087 65.2334 24.1193 64.8894 22.214C64.732 21.342 64.6067 20.6527 64.4254 20.142C63.3627 17.1393 60.8947 14.7647 57.8227 13.7887C56.6534 13.4167 55.46 13.2287 54.2747 13.2287ZM54.2747 15.1807C55.224 15.1807 56.2094 15.3287 57.208 15.6447C59.7027 16.438 61.6827 18.354 62.5414 20.7807C63.048 22.2087 63.3227 27.714 65.8267 29.9833C68.2454 32.1753 71.4934 35.886 71.4934 42.298C71.4934 49.5833 64.276 60.41 39.604 60.41H39.472C17.588 60.3767 7.51205 51.282 7.44938 42.298C7.40405 35.6047 10.8894 32.526 13.4294 29.9607C15.656 27.714 15.8427 24.158 15.88 23.3833C16.0907 19.0407 19.6534 15.4793 24.084 15.1993C24.28 15.186 24.476 15.1807 24.6694 15.1807C27.7 15.1807 30.368 16.6833 31.948 18.9687C32.6627 19.9993 33.8414 20.6193 35.0934 20.6193C35.2347 20.6193 35.376 20.6113 35.5187 20.5953C36.8134 20.45 38.1334 20.3727 39.472 20.3727C40.8134 20.3727 42.136 20.45 43.4334 20.5967C43.576 20.6127 43.716 20.6207 43.8574 20.6207C45.1054 20.6207 46.2814 20.002 46.9907 18.974C48.5707 16.686 51.2414 15.1807 54.2747 15.1807Z" fill="#DADBDC"/>
</g>
</g>
<defs>
<clipPath id="clip0_5_63">
<rect width="75.5905" height="75.5905" fill="white"/>
</clipPath>
</defs>
</svg>
