<svg width="24" height="24" viewBox="0 0 24 24" fill="none" xmlns="http://www.w3.org/2000/svg">
<path d="M22 8.25C22 4.804 19.196 2 15.75 2C14.379 2 13.077 2.44 12 3.254C10.923 2.44 9.621 2 8.25 2C4.804 2 2 4.804 2 8.25C2 9.622 2.439 10.923 3.254 12C2.44 13.077 2 14.379 2 15.75C2 19.196 4.804 22 8.25 22C9.621 22 10.923 21.56 12 20.746C13.077 21.56 14.379 22 15.75 22C19.196 22 22 19.196 22 15.75C22 14.379 21.561 13.077 20.746 12C21.561 10.923 22 9.622 22 8.25ZM18.718 12.715C19.545 13.524 20 14.602 20 15.75C20 18.093 18.094 20 15.75 20C14.602 20 13.523 19.544 12.715 18.718L12 17.987L11.285 18.718C10.476 19.545 9.398 20 8.25 20C5.906 20 4 18.093 4 15.75C4 14.602 4.455 13.523 5.282 12.715L6.013 12L5.282 11.285C4.455 10.476 4 9.398 4 8.25C4 5.907 5.906 4 8.25 4C9.398 4 10.477 4.45601 11.285 5.28201L12 6.013L12.715 5.28201C13.524 4.45501 14.602 4 15.75 4C18.094 4 20 5.907 20 8.25C20 9.398 19.545 10.477 18.718 11.285L17.986 12L18.718 12.715ZM11.124 13.42L9.972 11.42C9.834 11.181 9.528 11.099 9.289 11.237L8.422 11.736C8.184 11.874 8.102 12.18 8.239 12.419L9.832 15.183C10.129 15.69 10.642 15.999 11.178 15.999C11.777 15.979 12.27 15.639 12.544 15.086C12.671 14.83 12.792 14.573 12.912 14.317C13.232 13.632 13.536 12.985 13.944 12.412C14.558 11.547 15.278 10.795 16.134 10.123C16.351 9.95299 16.403 9.64099 16.241 9.41699L15.655 8.60599C15.494 8.38199 15.18 8.331 14.962 8.5C13.927 9.303 13.057 10.207 12.314 11.252C11.813 11.958 11.462 12.701 11.124 13.42Z" fill="#06060F" fill-opacity="0.87"/>
</svg>
