<svg width="24" height="24" viewBox="0 0 24 24" fill="none" xmlns="http://www.w3.org/2000/svg">
<path d="M18.36 2.64C16.902 1.182 14.717 1.037 11.985 1C9.28005 1.037 7.09505 1.182 5.63605 2.64C4.18005 4.099 4.03505 6.283 3.99805 9V15.013C4.03405 17.716 4.17805 19.899 5.63705 21.36C7.09505 22.818 9.27905 22.963 11.9841 23H12.011C14.717 22.963 16.9021 22.818 18.3611 21.36C19.4421 20.277 19.9311 17.781 19.9991 13V8.98599C19.9621 6.28299 19.817 4.099 18.36 2.64ZM7.05106 4.054C7.89606 3.209 9.38505 3.036 11.985 3C14.612 3.036 16.1021 3.20899 16.9451 4.05299C17.5811 4.68999 17.837 5.69401 17.938 7.26601C16.775 6.17401 15.2161 5.5 13.5001 5.5H10.5001C8.78206 5.5 7.22206 6.17501 6.06006 7.26801C6.16206 5.69201 6.41606 4.69 7.05106 4.054ZM16.9471 19.946C16.1031 20.789 14.618 20.963 11.998 21C9.37905 20.963 7.89505 20.79 7.05205 19.947C6.41405 19.309 6.16006 18.305 6.05806 16.732C7.22106 17.825 8.78105 18.501 10.4991 18.501H13.4991C15.1441 18.501 16.6451 17.881 17.7911 16.869C17.5611 18.97 17.1941 19.699 16.9471 19.946ZM13.5001 16.5H10.5001C8.01906 16.5 6.00105 14.481 6.00105 12C6.00105 9.519 8.01906 7.5 10.5001 7.5H13.5001C15.9811 7.5 17.9991 9.519 17.9991 12C17.9991 14.481 15.9811 16.5 13.5001 16.5ZM14.0641 11.294L13.8371 11.218C12.9601 10.924 12.1541 10.459 11.4611 9.847L11.2831 9.688C10.7491 9.215 9.92005 9.694 10.0591 10.394L10.108 10.628C10.292 11.532 10.292 12.465 10.108 13.369L10.0591 13.604C9.92005 14.304 10.7481 14.782 11.2831 14.309L11.4611 14.15C12.1541 13.539 12.9601 13.073 13.8371 12.78L14.0641 12.702C14.7421 12.479 14.7421 11.521 14.0641 11.294Z" fill="#06060F" fill-opacity="0.87"/>
</svg>
