<svg width="24" height="24" viewBox="0 0 24 24" fill="none" xmlns="http://www.w3.org/2000/svg">
<path fill-rule="evenodd" clip-rule="evenodd" d="M13.1821 21C12.2441 21 11.3781 20.774 10.6091 20.33C10.4031 20.211 10.2051 20.075 10.0141 19.923C7.83514 21.181 5.52314 21.34 3.77414 20.33C2.14614 19.391 1.16813 17.608 1.01913 15.311C0.881134 13.164 1.49313 10.79 2.74113 8.627C4.71513 5.209 7.88514 3 10.8191 3C11.7571 3 12.6231 3.226 13.3921 3.67C13.5981 3.789 13.7961 3.925 13.9871 4.077C16.1661 2.82 18.4771 2.66 20.2271 3.67C21.8551 4.609 22.8331 6.392 22.9821 8.689C23.1201 10.836 22.5081 13.21 21.2601 15.373C19.2861 18.792 16.1151 21 13.1821 21ZM10.8841 17.998L10.2971 17.338L9.56914 17.839C7.84214 19.03 6.04014 19.329 4.77414 18.597C3.74414 18.002 3.11914 16.789 3.01514 15.181C2.90214 13.423 3.41914 11.451 4.47314 9.62601C6.07014 6.85801 8.62113 4.99899 10.8181 4.99899C11.4001 4.99899 11.9291 5.134 12.3921 5.401C12.6521 5.551 12.8951 5.752 13.1161 6L13.7031 6.66L14.4311 6.159C16.1581 4.968 17.9611 4.671 19.2261 5.401C20.2561 5.996 20.8811 7.209 20.9851 8.817C21.0981 10.575 20.5811 12.547 19.5271 14.372C17.9301 17.14 15.3791 18.999 13.1821 18.999C12.6001 18.999 12.0711 18.864 11.6081 18.597C11.3481 18.447 11.1051 18.246 10.8841 17.998Z" fill="#06060F" fill-opacity="0.87"/>
<path d="M14.8231 12.846C15.6351 12.574 15.6351 11.427 14.8231 11.154L14.5521 11.063C13.5001 10.71 12.5321 10.151 11.7011 9.418L11.4861 9.22701C10.8441 8.66001 9.85013 9.234 10.0191 10.073L10.0771 10.355C10.2981 11.441 10.2981 12.56 10.0771 13.645L10.0191 13.927C9.85013 14.766 10.8441 15.339 11.4861 14.773L11.7011 14.582C12.5321 13.85 13.5001 13.29 14.5521 12.938L14.8231 12.846Z" fill="#06060F" fill-opacity="0.87"/>
</svg>
