<?xml version="1.0" encoding="utf-8"?>
<!-- Generator: Adobe Illustrator 24.2.0, SVG Export Plug-In . SVG Version: 6.00 Build 0)  -->
<svg version="1.1" id="Layer_1" xmlns="http://www.w3.org/2000/svg" xmlns:xlink="http://www.w3.org/1999/xlink" x="0px" y="0px"
	 viewBox="0 0 1000 1000" style="enable-background:new 0 0 1000 1000;" xml:space="preserve">
<style type="text/css">
	.st0{fill:#7253A2;}
</style>
<path class="st0" d="M624.1,621.2c23.7-2.5,41.8-22.9,40.9-47.5c-0.8-24.6-21.3-44.2-45.8-44.2h-1.6c-25.4,0.8-45,22.1-44.2,47.5
	c0.8,12.3,5.7,22.9,13.1,30.3c-27.8,54.9-70.4,95-134.3,128.5c-43.4,22.9-88.4,31.1-133.4,25.4c-36.8-4.9-65.5-21.3-83.5-48.3
	c-26.2-40.1-28.7-83.5-6.5-126.9c15.6-31.1,40.1-54,55.7-65.5c-3.3-10.6-8.2-28.7-10.6-41.8c-118.7,86-106.4,202.2-70.4,257.1
	c27,40.9,81.9,66.3,142.5,66.3c16.4,0,32.7-1.6,49.1-5.7C499.7,775.9,579.1,713.7,624.1,621.2L624.1,621.2z M768.2,519.6
	c-62.2-72.9-153.9-113-258.7-113h-13.1c-7.4-14.7-22.9-24.6-40.1-24.6h-1.6c-25.4,0.8-45,22.1-44.2,47.5
	c0.8,24.6,21.3,44.2,45.8,44.2h1.6c18-0.8,33.6-12.3,40.1-27.8h14.7c62.2,0,121.2,18,174.4,53.2c40.9,27,70.4,62.2,86.8,104.8
	c13.9,34.4,13.1,68-1.6,96.6c-22.9,43.4-61.4,67.1-112.2,67.1c-32.7,0-63.9-9.8-80.2-17.2c-9,8.2-25.4,21.3-36.8,29.5
	c35.2,16.4,71.2,25.4,105.6,25.4c78.6,0,136.7-43.4,158.8-86.8C831.2,671.1,829.6,589.2,768.2,519.6L768.2,519.6z M352.3,635.1
	c0.8,24.6,21.3,44.2,45.8,44.2h1.6c25.4-0.8,45-22.1,44.2-47.5c-0.8-24.6-21.3-44.2-45.8-44.2h-1.6c-1.6,0-4.1,0-5.7,0.8
	c-33.6-55.7-47.5-116.3-42.6-181.8c3.3-49.1,19.6-91.7,48.3-126.9c23.7-30.3,69.6-45,100.7-45.8c86.8-1.6,123.6,106.4,126.1,149.8
	c10.6,2.5,28.7,8.2,40.9,12.3c-9.8-132.6-91.7-201.4-170.3-201.4c-73.7,0-141.6,53.2-168.7,131.8c-37.7,104.8-13.1,205.5,32.7,284.9
	C353.9,617.1,351.5,626.1,352.3,635.1L352.3,635.1z"/>
</svg>
